<?xml version="1.0" encoding="UTF-8" standalone="no"?>
<!-- Created with Inkscape (http://www.inkscape.org/) -->

<svg
   width="83.885323mm"
   height="53.0779mm"
   viewBox="0 0 83.885323 53.0779"
   version="1.1"
   id="svg5"
   xmlns="http://www.w3.org/2000/svg"
   xmlns:svg="http://www.w3.org/2000/svg">
  <defs
     id="defs2" />
  <g
     id="layer1"
     transform="translate(-58.677531,-30.131401)">
    <g
       aria-label="STAR WARS"
       id="text236"
       style="font-weight:bold;font-size:25.4px;-inkscape-font-specification:'sans-serif, Bold';text-align:center;text-anchor:middle;fill:none;stroke:#ffdc00;stroke-width:2.11667">
      <path
         d="m 79.957888,32.107509 v 3.919141 q -1.525489,-0.682129 -2.976563,-1.029395 -1.451074,-0.347265 -2.740918,-0.347265 -1.711523,0 -2.530078,0.471289 -0.818555,0.471289 -0.818555,1.463476 0,0.744141 0.545704,1.16582 0.558105,0.409278 2.009179,0.706934 l 2.033985,0.409277 q 3.088183,0.620118 4.390429,1.885157 1.302246,1.265039 1.302246,3.596679 0,3.063379 -1.823144,4.564063 -1.810742,1.488281 -5.543848,1.488281 -1.761133,0 -3.534668,-0.334863 -1.773535,-0.334864 -3.54707,-0.992188 v -4.030762 q 1.773535,0.942579 3.423047,1.42627 1.661914,0.471289 3.199804,0.471289 1.562696,0 2.393653,-0.520898 0.830957,-0.520899 0.830957,-1.488282 0,-0.868164 -0.570508,-1.339453 -0.558105,-0.471289 -2.244824,-0.843359 l -1.847949,-0.409277 q -2.778125,-0.595313 -4.067969,-1.897559 -1.277441,-1.302246 -1.277441,-3.509863 0,-2.765723 1.785937,-4.254004 1.785937,-1.488281 5.13457,-1.488281 1.525489,0 3.137793,0.235644 1.612305,0.223242 3.336231,0.682129 z"
         id="path2510" />
      <path
         d="m 83.157693,31.524599 h 17.065627 v 3.609082 H 94.084157 V 50.041298 H 89.309255 V 35.133681 h -6.151562 z"
         id="path2512" />
      <path
         d="m 111.95594,46.66786 h -7.46621 l -1.17823,3.373438 h -4.799704 l 6.858494,-18.516699 h 5.69268 l 6.85849,18.516699 h -4.7997 z m -6.27559,-3.435449 h 5.07256 l -2.53008,-7.366992 z"
         id="path2514" />
      <path
         d="m 127.16121,39.73495 q 1.50068,0 2.1456,-0.558105 0.65733,-0.558106 0.65733,-1.835547 0,-1.265039 -0.65733,-1.810742 -0.64492,-0.545703 -2.1456,-0.545703 h -2.00918 v 4.750097 z m -2.00918,3.299024 v 7.007324 h -4.7749 V 31.524599 h 7.29258 q 3.65869,0 5.35781,1.227832 1.71152,1.227832 1.71152,3.881934 0,1.835546 -0.89297,3.013769 -0.88056,1.178223 -2.6665,1.736328 0.97978,0.223242 1.74873,1.016992 0.78135,0.781348 1.5751,2.38125 l 2.59209,5.258594 h -5.08496 l -2.25723,-4.60127 q -0.68213,-1.389062 -1.38906,-1.897558 -0.69453,-0.508496 -1.86035,-0.508496 z"
         id="path2516" />
      <path
         d="m 59.735866,63.274598 h 4.576465 l 3.199805,13.456543 3.175,-13.456543 h 4.601269 l 3.175,13.456543 3.199805,-13.456543 h 4.539258 l -4.365625,18.516699 h -5.506641 l -3.361035,-14.07666 -3.323828,14.07666 h -5.506641 z"
         id="path2518" />
      <path
         d="m 99.423367,78.41786 h -7.466211 l -1.178223,3.373437 h -4.799707 l 6.858496,-18.516699 h 5.692676 l 6.858492,18.516699 h -4.7997 z m -6.275586,-3.435449 h 5.072558 l -2.530078,-7.366992 z"
         id="path2520" />
      <path
         d="m 114.62864,71.48495 q 1.50068,0 2.1456,-0.558106 0.65733,-0.558105 0.65733,-1.835546 0,-1.265039 -0.65733,-1.810743 -0.64492,-0.545703 -2.1456,-0.545703 h -2.00918 v 4.750098 z m -2.00918,3.299023 v 7.007324 h -4.7749 V 63.274598 h 7.29257 q 3.6587,0 5.35782,1.227833 1.71152,1.227832 1.71152,3.881933 0,1.835547 -0.89297,3.01377 -0.88057,1.178222 -2.6665,1.736328 0.97978,0.223242 1.74873,1.016992 0.78135,0.781347 1.5751,2.38125 l 2.59209,5.258593 h -5.08497 l -2.25722,-4.601269 q -0.68213,-1.389063 -1.38906,-1.897559 -0.69454,-0.508496 -1.86036,-0.508496 z"
         id="path2522" />
      <path
         d="m 140.28909,63.857509 v 3.91914 q -1.52549,-0.682129 -2.97657,-1.029394 -1.45107,-0.347266 -2.74091,-0.347266 -1.71153,0 -2.53008,0.471289 -0.81856,0.471289 -0.81856,1.463477 0,0.74414 0.54571,1.16582 0.5581,0.409277 2.00918,0.706934 l 2.03398,0.409277 q 3.08818,0.620117 4.39043,1.885156 1.30225,1.265039 1.30225,3.59668 0,3.063379 -1.82315,4.564062 -1.81074,1.488281 -5.54385,1.488281 -1.76113,0 -3.53466,-0.334863 -1.77354,-0.334863 -3.54707,-0.992187 v -4.030762 q 1.77353,0.942578 3.42304,1.426269 1.66192,0.47129 3.19981,0.47129 1.56269,0 2.39365,-0.520899 0.83096,-0.520898 0.83096,-1.488281 0,-0.868164 -0.57051,-1.339453 -0.55811,-0.471289 -2.24483,-0.84336 l -1.84795,-0.409277 q -2.77812,-0.595312 -4.06796,-1.897558 -1.27745,-1.302247 -1.27745,-3.509864 0,-2.765722 1.78594,-4.254004 1.78594,-1.488281 5.13457,-1.488281 1.52549,0 3.1378,0.235645 1.6123,0.223242 3.33623,0.682129 z"
         id="path2524" />
    </g>
  </g>
</svg>
